<?xml version="1.0" encoding="UTF-8" standalone="no"?>
<!-- Created with Inkscape (http://www.inkscape.org/) -->

<svg
   width="32mm"
   height="32mm"
   viewBox="0 0 32 32"
   version="1.1"
   id="svg1"
   xml:space="preserve"
   inkscape:version="1.4.2 (ebf0e940d0, 2025-05-08)"
   sodipodi:docname="favicon.svg"
   inkscape:export-filename="favicon.png"
   inkscape:export-xdpi="25.4"
   inkscape:export-ydpi="25.4"
   xmlns:inkscape="http://www.inkscape.org/namespaces/inkscape"
   xmlns:sodipodi="http://sodipodi.sourceforge.net/DTD/sodipodi-0.dtd"
   xmlns="http://www.w3.org/2000/svg"
   xmlns:svg="http://www.w3.org/2000/svg"><sodipodi:namedview
     id="namedview1"
     pagecolor="#ffffff"
     bordercolor="#666666"
     borderopacity="1.0"
     inkscape:showpageshadow="2"
     inkscape:pageopacity="0.0"
     inkscape:pagecheckerboard="0"
     inkscape:deskcolor="#d1d1d1"
     inkscape:document-units="mm"
     showgrid="true"
     showguides="true"
     inkscape:zoom="2.6981086"
     inkscape:cx="107.66802"
     inkscape:cy="58.188911"
     inkscape:window-width="1803"
     inkscape:window-height="1125"
     inkscape:window-x="0"
     inkscape:window-y="0"
     inkscape:window-maximized="1"
     inkscape:current-layer="layer1"><inkscape:grid
       id="grid1"
       units="mm"
       originx="0"
       originy="0"
       spacingx="0.26458333"
       spacingy="0.26458333"
       empcolor="#0099e5"
       empopacity="0.30196078"
       color="#0099e5"
       opacity="0.14901961"
       empspacing="5"
       enabled="true"
       visible="true" /></sodipodi:namedview><defs
     id="defs1"><linearGradient
       id="linearGradient8302"
       inkscape:swatch="gradient"><stop
         offset="0"
         style="stop-color:#ffffff;stop-opacity:1"
         id="stop8304" /><stop
         offset="1"
         style="stop-color:#ffffff;stop-opacity:0;"
         id="stop8306" /></linearGradient></defs><g
     inkscape:label="Layer 1"
     inkscape:groupmode="layer"
     id="layer1"><rect
       style="fill:#b9cfe7;stroke:none;stroke-width:3;stroke-dasharray:none;stroke-opacity:1;paint-order:stroke fill markers;fill-opacity:1"
       id="rect5"
       width="32.000004"
       height="32.000004"
       x="2.7815501e-08"
       y="0" /><g
       id="g1"
       transform="matrix(-1,0,0,1,32.000006,2.1166674)"><path
         style="fill:#ffffff;stroke:#204a87;stroke-width:4;stroke-linecap:round;stroke-linejoin:round;stroke-dasharray:none;stroke-opacity:1"
         d="M 11.272482,21.820836 C 8.3241065,21.533403 5.6473967,19.666329 4.4641068,17.071805 3.7559977,15.51918 3.5721053,13.505713 3.9976583,11.964589 4.9031346,8.6854299 7.647503,6.3950246 11.192912,5.9595445 c 1.841448,-0.2261834 4.016265,0.2575537 5.557733,1.2361845 1.643367,1.0433182 2.894186,2.6275853 3.437167,4.353451 0.09801,0.311552 0.186073,0.575902 0.195672,0.587433 0.0095,0.01156 0.341517,-0.08215 0.737593,-0.20806 1.425942,-0.453462 2.805052,-0.374231 4.155791,0.238781 0.562932,0.255475 0.796822,0.422529 1.394801,0.996207 1.131508,1.08554 1.575185,2.097396 1.577247,3.597117 0.002,1.440797 -0.485647,2.550943 -1.577733,3.591897 -0.687644,0.655457 -1.304299,1.009931 -2.309376,1.327506 l -0.556992,0.175999 -5.967777,0.01148 c -3.282277,0.0061 -6.236327,-0.01471 -6.564556,-0.04666 z"
         id="path1"
         sodipodi:nodetypes="cssssssssscsscscc" /><path
         id="path5"
         style="fill:none;stroke:#204a87;stroke-width:3.99999;stroke-linecap:round;stroke-dasharray:none;stroke-opacity:1;paint-order:normal"
         d="m 12.170833,5.9045492 c -0.0525,-3.395e-4 -0.104867,-1.477e-4 -0.157096,5.167e-4 -0.278706,0.00355 -0.553028,0.021392 -0.820622,0.05426 C 7.6477064,6.394806 4.9031651,8.685485 3.9976888,11.964644 c -0.425553,1.541124 -0.2414709,3.554557 0.4666382,5.107182 1.1832899,2.594524 3.8599943,4.461631 6.80837,4.749064 0.09559,0.0093 0.898136,0.02481 0.898136,0.02481"
         sodipodi:nodetypes="cccsscc" /><path
         id="path7"
         style="fill:#ffffff;stroke:#204a87;stroke-width:4;stroke-linecap:round;stroke-linejoin:round;stroke-dasharray:none;stroke-opacity:1"
         d="m 21.602299,21.860164 2.20245,-0.0041 0.557071,-0.176216 c 1.005077,-0.317575 1.621776,-0.671594 2.30942,-1.327051 1.092086,-1.040954 1.579682,-2.151232 1.577682,-3.592029 -0.0021,-1.499721 -0.445657,-2.511656 -1.577165,-3.597196 -0.597979,-0.573678 -0.831815,-0.740847 -1.394747,-0.996322 -0.748864,-0.33986 -1.506379,-0.515708 -2.27583,-0.527616 -0.46167,-0.0071 -0.927987,0.04474 -1.398881,0.155546"
         sodipodi:nodetypes="cccccsssc" /></g></g></svg>
